<svg width="78" height="16" viewBox="0 0 78 16" fill="none" xmlns="http://www.w3.org/2000/svg">
<path d="M70.5182 2.67377L70.5175 2.67518L69.3454 5.01946C69.198 5.31875 68.9581 5.56449 68.7204 5.73993C68.4813 5.91633 68.1764 6.07184 67.85 6.12623L67.8496 6.12629L65.7234 6.47956C65.7232 6.47958 65.7231 6.4796 65.723 6.47962C65.1727 6.57143 65.0904 6.77065 65.0866 6.78261C65.0833 6.79288 65.0324 7.00079 65.4286 7.39429L65.4304 7.3961L67.0837 9.04943C67.3361 9.30183 67.4976 9.63044 67.5853 9.93669C67.673 10.2433 67.7092 10.6056 67.6319 10.9505L67.6319 10.9505L67.6308 10.9554L67.1576 13.0015C67.1575 13.0017 67.1575 13.0018 67.1575 13.0019C67.1575 13.002 67.1575 13.002 67.1574 13.0021C67.079 13.3425 67.079 13.5765 67.1052 13.718C67.121 13.8036 67.1425 13.8398 67.1515 13.8516C67.1655 13.8567 67.2072 13.8664 67.2953 13.8553C67.4393 13.8371 67.6633 13.7657 67.9647 13.5877C67.9647 13.5877 67.9647 13.5877 67.9647 13.5877C67.9649 13.5876 67.9651 13.5875 67.9653 13.5873L69.9577 12.4079C69.9578 12.4078 69.9579 12.4078 69.958 12.4077C70.2819 12.2159 70.661 12.1431 70.9976 12.1431C71.3349 12.1431 71.7129 12.2162 72.0372 12.4048L72.0372 12.4048L72.0421 12.4077L74.0354 13.5877L74.0362 13.5881C74.3353 13.7656 74.5578 13.8363 74.7007 13.8542C74.7914 13.8655 74.8331 13.8545 74.8461 13.8494C74.8548 13.8387 74.8777 13.8026 74.8943 13.7137C74.9206 13.5729 74.9209 13.3402 74.8427 13.0022L74.8427 13.0021L74.3693 10.9554L74.3693 10.9554L74.3682 10.9505C74.2909 10.6056 74.3271 10.2433 74.4149 9.93669C74.5025 9.63044 74.664 9.30183 74.9164 9.04944L75.3664 9.49941L74.9164 9.04943L76.5697 7.3961C76.9634 7.00244 76.9145 6.7933 76.9106 6.78124C76.907 6.7699 76.8267 6.5713 76.2771 6.47962C76.277 6.4796 76.2769 6.47958 76.2768 6.47956L74.1505 6.12629L74.1505 6.1263L74.1478 6.12585C73.8241 6.07087 73.5211 5.91452 73.2842 5.73889C73.0482 5.56393 72.8087 5.31854 72.6614 5.0195L71.4899 2.67658C71.4898 2.67638 71.4897 2.67619 71.4896 2.676C71.224 2.14774 71.004 2.13477 71.0009 2.13477C70.9992 2.13477 70.7807 2.14608 70.5182 2.67377ZM67.1557 13.8562C67.1558 13.8561 67.155 13.8552 67.1532 13.8537C67.1547 13.8555 67.1557 13.8563 67.1557 13.8562ZM67.1489 13.8505C67.147 13.8493 67.1459 13.8489 67.1459 13.849C67.1458 13.849 67.1467 13.8496 67.1489 13.8505ZM74.8507 13.8471C74.8506 13.847 74.8496 13.8475 74.8478 13.8487C74.8499 13.8478 74.8508 13.8472 74.8507 13.8471ZM74.8448 13.8509C74.8431 13.8523 74.8424 13.8531 74.8424 13.8532C74.8425 13.8532 74.8433 13.8526 74.8448 13.8509Z" fill="#E8E8E8" stroke="#E8E8E8" stroke-width="1.5" stroke-linecap="round" stroke-linejoin="round"/>
<path d="M54.5182 2.67377L54.5175 2.67518L53.3454 5.01946C53.198 5.31875 52.9581 5.56449 52.7204 5.73993C52.4813 5.91633 52.1764 6.07184 51.85 6.12623L51.8496 6.12629L49.7234 6.47956C49.7232 6.47958 49.7231 6.4796 49.723 6.47962C49.1727 6.57143 49.0904 6.77065 49.0866 6.78261C49.0833 6.79288 49.0324 7.00079 49.4286 7.39429L49.4304 7.3961L51.0837 9.04943C51.3361 9.30183 51.4976 9.63044 51.5853 9.93669C51.673 10.2433 51.7092 10.6056 51.6319 10.9505L51.6319 10.9505L51.6308 10.9554L51.1576 13.0015C51.1575 13.0017 51.1575 13.0018 51.1575 13.0019C51.1575 13.002 51.1575 13.002 51.1574 13.0021C51.079 13.3425 51.079 13.5765 51.1052 13.718C51.121 13.8036 51.1425 13.8398 51.1515 13.8516C51.1655 13.8567 51.2072 13.8664 51.2953 13.8553C51.4393 13.8371 51.6633 13.7657 51.9647 13.5877C51.9647 13.5877 51.9647 13.5877 51.9647 13.5877C51.9649 13.5876 51.9651 13.5875 51.9653 13.5873L53.9577 12.4079C53.9578 12.4078 53.9579 12.4078 53.958 12.4077C54.2819 12.2159 54.661 12.1431 54.9976 12.1431C55.3349 12.1431 55.7129 12.2162 56.0372 12.4048L56.0372 12.4048L56.0421 12.4077L58.0354 13.5877L58.0362 13.5881C58.3353 13.7656 58.5578 13.8363 58.7007 13.8542C58.7914 13.8655 58.8331 13.8545 58.8461 13.8494C58.8548 13.8387 58.8777 13.8026 58.8943 13.7137C58.9206 13.5729 58.9209 13.3402 58.8427 13.0022L58.8427 13.0021L58.3693 10.9554L58.3693 10.9554L58.3682 10.9505C58.2909 10.6056 58.3271 10.2433 58.4149 9.93669C58.5025 9.63044 58.664 9.30183 58.9164 9.04944L59.3664 9.49941L58.9164 9.04943L60.5697 7.3961C60.9634 7.00244 60.9145 6.7933 60.9106 6.78124C60.907 6.7699 60.8267 6.5713 60.2771 6.47962C60.277 6.4796 60.2769 6.47958 60.2768 6.47956L58.1505 6.12629L58.1505 6.1263L58.1478 6.12585C57.8241 6.07087 57.5211 5.91452 57.2842 5.73889C57.0482 5.56393 56.8087 5.31854 56.6614 5.0195L55.4899 2.67658C55.4898 2.67638 55.4897 2.67619 55.4896 2.676C55.224 2.14774 55.004 2.13477 55.0009 2.13477C54.9992 2.13477 54.7807 2.14608 54.5182 2.67377ZM51.1557 13.8562C51.1558 13.8561 51.155 13.8552 51.1532 13.8537C51.1547 13.8555 51.1557 13.8563 51.1557 13.8562ZM51.1489 13.8505C51.147 13.8493 51.1459 13.8489 51.1459 13.849C51.1458 13.849 51.1467 13.8496 51.1489 13.8505ZM58.8507 13.8471C58.8506 13.847 58.8496 13.8475 58.8478 13.8487C58.8499 13.8478 58.8508 13.8472 58.8507 13.8471ZM58.8448 13.8509C58.8431 13.8523 58.8424 13.8531 58.8424 13.8532C58.8425 13.8532 58.8433 13.8526 58.8448 13.8509Z" fill="#FABF35" stroke="#FABF35" stroke-width="1.5" stroke-linecap="round" stroke-linejoin="round"/>
<path d="M38.5182 2.67377L38.5175 2.67518L37.3454 5.01946C37.198 5.31875 36.9581 5.56449 36.7204 5.73993C36.4813 5.91633 36.1764 6.07184 35.85 6.12623L35.8496 6.12629L33.7234 6.47956C33.7232 6.47958 33.7231 6.4796 33.723 6.47962C33.1727 6.57143 33.0904 6.77065 33.0866 6.78261C33.0833 6.79288 33.0324 7.00079 33.4286 7.39429L33.4304 7.3961L35.0837 9.04943C35.3361 9.30183 35.4976 9.63044 35.5853 9.93669C35.673 10.2433 35.7092 10.6056 35.6319 10.9505L35.6319 10.9505L35.6308 10.9554L35.1576 13.0015C35.1575 13.0017 35.1575 13.0018 35.1575 13.0019C35.1575 13.002 35.1575 13.002 35.1574 13.0021C35.079 13.3425 35.079 13.5765 35.1052 13.718C35.121 13.8036 35.1425 13.8398 35.1515 13.8516C35.1655 13.8567 35.2072 13.8664 35.2953 13.8553C35.4393 13.8371 35.6633 13.7657 35.9647 13.5877C35.9647 13.5877 35.9647 13.5877 35.9647 13.5877C35.9649 13.5876 35.9651 13.5875 35.9653 13.5873L37.9577 12.4079C37.9578 12.4078 37.9579 12.4078 37.958 12.4077C38.2819 12.2159 38.661 12.1431 38.9976 12.1431C39.3349 12.1431 39.7129 12.2162 40.0372 12.4048L40.0372 12.4048L40.0421 12.4077L42.0354 13.5877L42.0362 13.5881C42.3353 13.7656 42.5578 13.8363 42.7007 13.8542C42.7914 13.8655 42.8331 13.8545 42.8461 13.8494C42.8548 13.8387 42.8777 13.8026 42.8943 13.7137C42.9206 13.5729 42.9209 13.3402 42.8427 13.0022L42.8427 13.0021L42.3693 10.9554L42.3693 10.9554L42.3682 10.9505C42.2909 10.6056 42.3271 10.2433 42.4149 9.93669C42.5025 9.63044 42.664 9.30183 42.9164 9.04944L43.3664 9.49941L42.9164 9.04943L44.5697 7.3961C44.9634 7.00244 44.9145 6.7933 44.9106 6.78124C44.907 6.7699 44.8267 6.5713 44.2771 6.47962C44.277 6.4796 44.2769 6.47958 44.2768 6.47956L42.1505 6.12629L42.1505 6.1263L42.1478 6.12585C41.8241 6.07087 41.5211 5.91452 41.2842 5.73889C41.0482 5.56393 40.8087 5.31854 40.6614 5.0195L39.4899 2.67658C39.4898 2.67638 39.4897 2.67619 39.4896 2.676C39.224 2.14774 39.004 2.13477 39.0009 2.13477C38.9992 2.13477 38.7807 2.14608 38.5182 2.67377ZM35.1557 13.8562C35.1558 13.8561 35.155 13.8552 35.1532 13.8537C35.1547 13.8555 35.1557 13.8563 35.1557 13.8562ZM35.1489 13.8505C35.147 13.8493 35.1459 13.8489 35.1459 13.849C35.1458 13.849 35.1467 13.8496 35.1489 13.8505ZM42.8507 13.8471C42.8506 13.847 42.8496 13.8475 42.8478 13.8487C42.8499 13.8478 42.8508 13.8472 42.8507 13.8471ZM42.8448 13.8509C42.8431 13.8523 42.8424 13.8531 42.8424 13.8532C42.8425 13.8532 42.8433 13.8526 42.8448 13.8509Z" fill="#FABF35" stroke="#FABF35" stroke-width="1.5" stroke-linecap="round" stroke-linejoin="round"/>
<path d="M22.5182 2.67377L22.5175 2.67518L21.3454 5.01946C21.198 5.31875 20.9581 5.56449 20.7204 5.73993C20.4813 5.91633 20.1764 6.07184 19.85 6.12623L19.8496 6.12629L17.7234 6.47956C17.7232 6.47958 17.7231 6.4796 17.723 6.47962C17.1727 6.57143 17.0904 6.77065 17.0866 6.78261C17.0833 6.79288 17.0324 7.00079 17.4286 7.39429L17.4304 7.3961L19.0837 9.04943C19.3361 9.30183 19.4976 9.63044 19.5853 9.93669C19.673 10.2433 19.7092 10.6056 19.6319 10.9505L19.6319 10.9505L19.6308 10.9554L19.1576 13.0015C19.1575 13.0017 19.1575 13.0018 19.1575 13.0019C19.1575 13.002 19.1575 13.002 19.1574 13.0021C19.079 13.3425 19.079 13.5765 19.1052 13.718C19.121 13.8036 19.1425 13.8398 19.1515 13.8516C19.1655 13.8567 19.2072 13.8664 19.2953 13.8553C19.4393 13.8371 19.6633 13.7657 19.9647 13.5877C19.9647 13.5877 19.9647 13.5877 19.9647 13.5877C19.9649 13.5876 19.9651 13.5875 19.9653 13.5873L21.9577 12.4079C21.9578 12.4078 21.9579 12.4078 21.958 12.4077C22.2819 12.2159 22.661 12.1431 22.9976 12.1431C23.3349 12.1431 23.7129 12.2162 24.0372 12.4048L24.0372 12.4048L24.0421 12.4077L26.0354 13.5877L26.0362 13.5881C26.3353 13.7656 26.5578 13.8363 26.7007 13.8542C26.7914 13.8655 26.8331 13.8545 26.8461 13.8494C26.8548 13.8387 26.8777 13.8026 26.8943 13.7137C26.9206 13.5729 26.9209 13.3402 26.8427 13.0022L26.8427 13.0021L26.3693 10.9554L26.3693 10.9554L26.3682 10.9505C26.2909 10.6056 26.3271 10.2433 26.4149 9.93669C26.5025 9.63044 26.664 9.30183 26.9164 9.04944L27.3664 9.49941L26.9164 9.04943L28.5697 7.3961C28.9634 7.00244 28.9145 6.7933 28.9106 6.78124C28.907 6.7699 28.8267 6.5713 28.2771 6.47962C28.277 6.4796 28.2769 6.47958 28.2768 6.47956L26.1505 6.12629L26.1505 6.1263L26.1478 6.12585C25.8241 6.07087 25.5211 5.91452 25.2842 5.73889C25.0482 5.56393 24.8087 5.31854 24.6614 5.0195L23.4899 2.67658C23.4898 2.67638 23.4897 2.67619 23.4896 2.676C23.224 2.14774 23.004 2.13477 23.0009 2.13477C22.9992 2.13477 22.7807 2.14608 22.5182 2.67377ZM19.1557 13.8562C19.1558 13.8561 19.155 13.8552 19.1532 13.8537C19.1547 13.8555 19.1557 13.8563 19.1557 13.8562ZM19.1489 13.8505C19.147 13.8493 19.1459 13.8489 19.1459 13.849C19.1458 13.849 19.1467 13.8496 19.1489 13.8505ZM26.8507 13.8471C26.8506 13.847 26.8496 13.8475 26.8478 13.8487C26.8499 13.8478 26.8508 13.8472 26.8507 13.8471ZM26.8448 13.8509C26.8431 13.8523 26.8424 13.8531 26.8424 13.8532C26.8425 13.8532 26.8433 13.8526 26.8448 13.8509Z" fill="#FABF35" stroke="#FABF35" stroke-width="1.5" stroke-linecap="round" stroke-linejoin="round"/>
<path d="M6.51825 2.67377L6.51755 2.67518L5.34541 5.01946C5.19799 5.31875 4.95813 5.56449 4.72036 5.73993C4.4813 5.91633 4.17638 6.07184 3.85003 6.12623L3.84965 6.12629L1.72336 6.47956C1.72323 6.47958 1.72311 6.4796 1.72298 6.47962C1.17267 6.57143 1.09042 6.77065 1.08658 6.78261C1.08328 6.79288 1.03238 7.00079 1.42858 7.39429L1.43039 7.3961L3.08372 9.04943C3.33612 9.30183 3.4976 9.63044 3.58527 9.93669C3.67303 10.2433 3.7092 10.6056 3.6319 10.9505L3.63192 10.9505L3.63077 10.9554L3.15757 13.0015C3.15754 13.0017 3.15751 13.0018 3.15748 13.0019C3.15746 13.002 3.15745 13.002 3.15744 13.0021C3.07905 13.3425 3.07901 13.5765 3.10517 13.718C3.12098 13.8036 3.14246 13.8398 3.15148 13.8516C3.16545 13.8567 3.20722 13.8664 3.29531 13.8553C3.4393 13.8371 3.66328 13.7657 3.96467 13.5877C3.96468 13.5877 3.96469 13.5877 3.9647 13.5877C3.96489 13.5876 3.96509 13.5875 3.96528 13.5873L5.95771 12.4079C5.95781 12.4078 5.95791 12.4078 5.958 12.4077C6.28189 12.2159 6.66103 12.1431 6.99756 12.1431C7.33488 12.1431 7.71294 12.2162 8.03723 12.4048L8.03724 12.4048L8.04212 12.4077L10.0354 13.5877L10.0362 13.5881C10.3353 13.7656 10.5578 13.8363 10.7007 13.8542C10.7914 13.8655 10.8331 13.8545 10.8461 13.8494C10.8548 13.8387 10.8777 13.8026 10.8943 13.7137C10.9206 13.5729 10.9209 13.3402 10.8427 13.0022L10.8427 13.0021L10.3693 10.9554L10.3693 10.9554L10.3682 10.9505C10.2909 10.6056 10.3271 10.2433 10.4149 9.93669C10.5025 9.63044 10.664 9.30183 10.9164 9.04944L11.3664 9.49941L10.9164 9.04943L12.5697 7.3961C12.9634 7.00244 12.9145 6.7933 12.9106 6.78124C12.907 6.7699 12.8267 6.5713 12.2771 6.47962C12.277 6.4796 12.2769 6.47958 12.2768 6.47956L10.1505 6.12629L10.1505 6.1263L10.1478 6.12585C9.82406 6.07087 9.52106 5.91452 9.28419 5.73889C9.04823 5.56393 8.80871 5.31854 8.6614 5.0195L7.48994 2.67658C7.48984 2.67638 7.48975 2.67619 7.48965 2.676C7.22398 2.14774 7.00396 2.13477 7.00089 2.13477C6.99918 2.13477 6.78071 2.14608 6.51825 2.67377ZM3.15573 13.8562C3.1558 13.8561 3.15503 13.8552 3.1532 13.8537C3.15475 13.8555 3.15565 13.8563 3.15573 13.8562ZM3.14886 13.8505C3.14699 13.8493 3.14593 13.8489 3.14587 13.849C3.14581 13.849 3.14674 13.8496 3.14886 13.8505ZM10.8507 13.8471C10.8506 13.847 10.8496 13.8475 10.8478 13.8487C10.8499 13.8478 10.8508 13.8472 10.8507 13.8471ZM10.8448 13.8509C10.8431 13.8523 10.8424 13.8531 10.8424 13.8532C10.8425 13.8532 10.8433 13.8526 10.8448 13.8509Z" fill="#FABF35" stroke="#FABF35" stroke-width="1.5" stroke-linecap="round" stroke-linejoin="round"/>
</svg>
