<svg width="85" height="62" viewBox="0 0 85 62" fill="none" xmlns="http://www.w3.org/2000/svg">
<path d="M21.14 61.44C17.62 61.44 14.54 60.78 11.9 59.46C9.26 57.9933 7.13333 56.0867 5.52 53.74C4.05333 51.3933 2.88 48.6067 2 45.38C1.12 42.1533 0.680001 38.78 0.680001 35.26C0.680001 28.0733 2.51333 21.3267 6.18 15.02C9.99333 8.71333 15.86 3.72666 23.78 0.0599873L25.76 4.01999C21.6533 5.92666 17.9867 8.71333 14.76 12.38C11.68 15.9 9.84667 19.64 9.26 23.6C8.38 26.68 8.30667 29.6867 9.04 32.62C12.2667 29.1 16.5933 27.34 22.02 27.34C27.0067 27.34 31.1133 28.88 34.34 31.96C37.5667 34.8933 39.18 39 39.18 44.28C39.18 49.4133 37.4933 53.5933 34.12 56.82C30.7467 59.9 26.42 61.44 21.14 61.44ZM66.46 61.44C62.94 61.44 59.86 60.78 57.22 59.46C54.58 57.9933 52.4533 56.0867 50.84 53.74C49.3733 51.3933 48.2 48.6067 47.32 45.38C46.44 42.1533 46 38.78 46 35.26C46 28.0733 47.8333 21.3267 51.5 15.02C55.3133 8.71333 61.18 3.72666 69.1 0.0599873L71.08 4.01999C66.9733 5.92666 63.3067 8.71333 60.08 12.38C57 15.9 55.1667 19.64 54.58 23.6C53.7 26.68 53.6267 29.6867 54.36 32.62C57.5867 29.1 61.9133 27.34 67.34 27.34C72.3267 27.34 76.4333 28.88 79.66 31.96C82.8867 34.8933 84.5 39 84.5 44.28C84.5 49.4133 82.8133 53.5933 79.44 56.82C76.0667 59.9 71.74 61.44 66.46 61.44Z" fill="#603809"/>
</svg>
