<svg width="80" height="16" viewBox="0 0 80 16" fill="none" xmlns="http://www.w3.org/2000/svg">
<path d="M8.48175 2.67377L8.48245 2.67518L9.65459 5.01946C9.80201 5.31875 10.0419 5.56449 10.2796 5.73993C10.5187 5.91633 10.8236 6.07184 11.15 6.12623L11.1504 6.12629L13.2766 6.47956C13.2768 6.47958 13.2769 6.4796 13.277 6.47962C13.8273 6.57143 13.9096 6.77065 13.9134 6.78261C13.9167 6.79288 13.9676 7.00079 13.5714 7.39429L13.5696 7.3961L11.9163 9.04943C11.6639 9.30183 11.5024 9.63044 11.4147 9.93669C11.327 10.2433 11.2908 10.6056 11.3681 10.9505L11.3681 10.9505L11.3692 10.9554L11.8424 13.0015C11.8425 13.0017 11.8425 13.0018 11.8425 13.0019C11.8425 13.002 11.8425 13.002 11.8426 13.0021C11.921 13.3425 11.921 13.5765 11.8948 13.718C11.879 13.8036 11.8575 13.8398 11.8485 13.8516C11.8345 13.8567 11.7928 13.8664 11.7047 13.8553C11.5607 13.8371 11.3367 13.7657 11.0353 13.5877C11.0353 13.5877 11.0353 13.5877 11.0353 13.5877C11.0351 13.5876 11.0349 13.5875 11.0347 13.5873L9.04229 12.4079C9.04219 12.4078 9.04209 12.4078 9.042 12.4077C8.71811 12.2159 8.33897 12.1431 8.00244 12.1431C7.66512 12.1431 7.28706 12.2162 6.96277 12.4048L6.96276 12.4048L6.95788 12.4077L4.96455 13.5877L4.96384 13.5881C4.66471 13.7656 4.44217 13.8363 4.29927 13.8542C4.20858 13.8655 4.1669 13.8545 4.15395 13.8494C4.14516 13.8387 4.12232 13.8026 4.10571 13.7137C4.07938 13.5729 4.07908 13.3402 4.1573 13.0022L4.15732 13.0021L4.63065 10.9554L4.63067 10.9554L4.63178 10.9505C4.70908 10.6056 4.67291 10.2433 4.58515 9.93669C4.49748 9.63044 4.336 9.30183 4.0836 9.04944L3.63363 9.49941L4.0836 9.04943L2.43027 7.3961C2.03661 7.00244 2.08555 6.7933 2.0894 6.78124C2.09302 6.7699 2.17331 6.5713 2.72286 6.47962C2.72299 6.4796 2.72311 6.47958 2.72324 6.47956L4.84953 6.12629L4.84953 6.1263L4.85217 6.12585C5.17594 6.07087 5.47894 5.91452 5.71581 5.73889C5.95177 5.56393 6.19129 5.31854 6.3386 5.0195L7.51006 2.67658C7.51016 2.67638 7.51025 2.67619 7.51035 2.676C7.77602 2.14774 7.99604 2.13477 7.99911 2.13477C8.00082 2.13477 8.21929 2.14608 8.48175 2.67377ZM11.8443 13.8562C11.8442 13.8561 11.845 13.8552 11.8468 13.8537C11.8453 13.8555 11.8443 13.8563 11.8443 13.8562ZM11.8511 13.8505C11.853 13.8493 11.8541 13.8489 11.8541 13.849C11.8542 13.849 11.8533 13.8496 11.8511 13.8505ZM4.14931 13.8471C4.14936 13.847 4.15037 13.8475 4.15216 13.8487C4.15014 13.8478 4.14925 13.8472 4.14931 13.8471ZM4.15519 13.8509C4.1569 13.8523 4.15765 13.8531 4.15759 13.8532C4.15754 13.8532 4.15668 13.8526 4.15519 13.8509Z" fill="#FABF35" stroke="#FABF35" stroke-width="1.5" stroke-linecap="round" stroke-linejoin="round"/>
<path d="M24.4818 2.67377L24.4825 2.67518L25.6546 5.01946C25.802 5.31875 26.0419 5.56449 26.2796 5.73993C26.5187 5.91633 26.8236 6.07184 27.15 6.12623L27.1504 6.12629L29.2766 6.47956C29.2768 6.47958 29.2769 6.4796 29.277 6.47962C29.8273 6.57143 29.9096 6.77065 29.9134 6.78261C29.9167 6.79288 29.9676 7.00079 29.5714 7.39429L29.5696 7.3961L27.9163 9.04943C27.6639 9.30183 27.5024 9.63044 27.4147 9.93669C27.327 10.2433 27.2908 10.6056 27.3681 10.9505L27.3681 10.9505L27.3692 10.9554L27.8424 13.0015C27.8425 13.0017 27.8425 13.0018 27.8425 13.0019C27.8425 13.002 27.8425 13.002 27.8426 13.0021C27.921 13.3425 27.921 13.5765 27.8948 13.718C27.879 13.8036 27.8575 13.8398 27.8485 13.8516C27.8345 13.8567 27.7928 13.8664 27.7047 13.8553C27.5607 13.8371 27.3367 13.7657 27.0353 13.5877C27.0353 13.5877 27.0353 13.5877 27.0353 13.5877C27.0351 13.5876 27.0349 13.5875 27.0347 13.5873L25.0423 12.4079C25.0422 12.4078 25.0421 12.4078 25.042 12.4077C24.7181 12.2159 24.339 12.1431 24.0024 12.1431C23.6651 12.1431 23.2871 12.2162 22.9628 12.4048L22.9628 12.4048L22.9579 12.4077L20.9646 13.5877L20.9638 13.5881C20.6647 13.7656 20.4422 13.8363 20.2993 13.8542C20.2086 13.8655 20.1669 13.8545 20.1539 13.8494C20.1452 13.8387 20.1223 13.8026 20.1057 13.7137C20.0794 13.5729 20.0791 13.3402 20.1573 13.0022L20.1573 13.0021L20.6307 10.9554L20.6307 10.9554L20.6318 10.9505C20.7091 10.6056 20.6729 10.2433 20.5851 9.93669C20.4975 9.63044 20.336 9.30183 20.0836 9.04944L19.6336 9.49941L20.0836 9.04943L18.4303 7.3961C18.0366 7.00244 18.0855 6.7933 18.0894 6.78124C18.093 6.7699 18.1733 6.5713 18.7229 6.47962C18.723 6.4796 18.7231 6.47958 18.7232 6.47956L20.8495 6.12629L20.8495 6.1263L20.8522 6.12585C21.1759 6.07087 21.4789 5.91452 21.7158 5.73889C21.9518 5.56393 22.1913 5.31854 22.3386 5.0195L23.5101 2.67658C23.5102 2.67638 23.5103 2.67619 23.5104 2.676C23.776 2.14774 23.996 2.13477 23.9991 2.13477C24.0008 2.13477 24.2193 2.14608 24.4818 2.67377ZM27.8443 13.8562C27.8442 13.8561 27.845 13.8552 27.8468 13.8537C27.8453 13.8555 27.8443 13.8563 27.8443 13.8562ZM27.8511 13.8505C27.853 13.8493 27.8541 13.8489 27.8541 13.849C27.8542 13.849 27.8533 13.8496 27.8511 13.8505ZM20.1493 13.8471C20.1494 13.847 20.1504 13.8475 20.1522 13.8487C20.1501 13.8478 20.1492 13.8472 20.1493 13.8471ZM20.1552 13.8509C20.1569 13.8523 20.1576 13.8531 20.1576 13.8532C20.1575 13.8532 20.1567 13.8526 20.1552 13.8509Z" fill="#FABF35" stroke="#FABF35" stroke-width="1.5" stroke-linecap="round" stroke-linejoin="round"/>
<path d="M40.4818 2.67377L40.4825 2.67518L41.6546 5.01946C41.802 5.31875 42.0419 5.56449 42.2796 5.73993C42.5187 5.91633 42.8236 6.07184 43.15 6.12623L43.1504 6.12629L45.2766 6.47956C45.2768 6.47958 45.2769 6.4796 45.277 6.47962C45.8273 6.57143 45.9096 6.77065 45.9134 6.78261C45.9167 6.79288 45.9676 7.00079 45.5714 7.39429L45.5696 7.3961L43.9163 9.04943C43.6639 9.30183 43.5024 9.63044 43.4147 9.93669C43.327 10.2433 43.2908 10.6056 43.3681 10.9505L43.3681 10.9505L43.3692 10.9554L43.8424 13.0015C43.8425 13.0017 43.8425 13.0018 43.8425 13.0019C43.8425 13.002 43.8425 13.002 43.8426 13.0021C43.921 13.3425 43.921 13.5765 43.8948 13.718C43.879 13.8036 43.8575 13.8398 43.8485 13.8516C43.8345 13.8567 43.7928 13.8664 43.7047 13.8553C43.5607 13.8371 43.3367 13.7657 43.0353 13.5877C43.0353 13.5877 43.0353 13.5877 43.0353 13.5877C43.0351 13.5876 43.0349 13.5875 43.0347 13.5873L41.0423 12.4079C41.0422 12.4078 41.0421 12.4078 41.042 12.4077C40.7181 12.2159 40.339 12.1431 40.0024 12.1431C39.6651 12.1431 39.2871 12.2162 38.9628 12.4048L38.9628 12.4048L38.9579 12.4077L36.9646 13.5877L36.9638 13.5881C36.6647 13.7656 36.4422 13.8363 36.2993 13.8542C36.2086 13.8655 36.1669 13.8545 36.1539 13.8494C36.1452 13.8387 36.1223 13.8026 36.1057 13.7137C36.0794 13.5729 36.0791 13.3402 36.1573 13.0022L36.1573 13.0021L36.6307 10.9554L36.6307 10.9554L36.6318 10.9505C36.7091 10.6056 36.6729 10.2433 36.5851 9.93669C36.4975 9.63044 36.336 9.30183 36.0836 9.04944L35.6336 9.49941L36.0836 9.04943L34.4303 7.3961C34.0366 7.00244 34.0855 6.7933 34.0894 6.78124C34.093 6.7699 34.1733 6.5713 34.7229 6.47962C34.723 6.4796 34.7231 6.47958 34.7232 6.47956L36.8495 6.12629L36.8495 6.1263L36.8522 6.12585C37.1759 6.07087 37.4789 5.91452 37.7158 5.73889C37.9518 5.56393 38.1913 5.31854 38.3386 5.0195L39.5101 2.67658C39.5102 2.67638 39.5103 2.67619 39.5104 2.676C39.776 2.14774 39.996 2.13477 39.9991 2.13477C40.0008 2.13477 40.2193 2.14608 40.4818 2.67377ZM43.8443 13.8562C43.8442 13.8561 43.845 13.8552 43.8468 13.8537C43.8453 13.8555 43.8443 13.8563 43.8443 13.8562ZM43.8511 13.8505C43.853 13.8493 43.8541 13.8489 43.8541 13.849C43.8542 13.849 43.8533 13.8496 43.8511 13.8505ZM36.1493 13.8471C36.1494 13.847 36.1504 13.8475 36.1522 13.8487C36.1501 13.8478 36.1492 13.8472 36.1493 13.8471ZM36.1552 13.8509C36.1569 13.8523 36.1576 13.8531 36.1576 13.8532C36.1575 13.8532 36.1567 13.8526 36.1552 13.8509Z" fill="#FABF35" stroke="#FABF35" stroke-width="1.5" stroke-linecap="round" stroke-linejoin="round"/>
<path d="M56.4818 2.67377L56.4825 2.67518L57.6546 5.01946C57.802 5.31875 58.0419 5.56449 58.2796 5.73993C58.5187 5.91633 58.8236 6.07184 59.15 6.12623L59.1504 6.12629L61.2766 6.47956C61.2768 6.47958 61.2769 6.4796 61.277 6.47962C61.8273 6.57143 61.9096 6.77065 61.9134 6.78261C61.9167 6.79288 61.9676 7.00079 61.5714 7.39429L61.5696 7.3961L59.9163 9.04943C59.6639 9.30183 59.5024 9.63044 59.4147 9.93669C59.327 10.2433 59.2908 10.6056 59.3681 10.9505L59.3681 10.9505L59.3692 10.9554L59.8424 13.0015C59.8425 13.0017 59.8425 13.0018 59.8425 13.0019C59.8425 13.002 59.8425 13.002 59.8426 13.0021C59.921 13.3425 59.921 13.5765 59.8948 13.718C59.879 13.8036 59.8575 13.8398 59.8485 13.8516C59.8345 13.8567 59.7928 13.8664 59.7047 13.8553C59.5607 13.8371 59.3367 13.7657 59.0353 13.5877C59.0353 13.5877 59.0353 13.5877 59.0353 13.5877C59.0351 13.5876 59.0349 13.5875 59.0347 13.5873L57.0423 12.4079C57.0422 12.4078 57.0421 12.4078 57.042 12.4077C56.7181 12.2159 56.339 12.1431 56.0024 12.1431C55.6651 12.1431 55.2871 12.2162 54.9628 12.4048L54.9628 12.4048L54.9579 12.4077L52.9646 13.5877L52.9638 13.5881C52.6647 13.7656 52.4422 13.8363 52.2993 13.8542C52.2086 13.8655 52.1669 13.8545 52.1539 13.8494C52.1452 13.8387 52.1223 13.8026 52.1057 13.7137C52.0794 13.5729 52.0791 13.3402 52.1573 13.0022L52.1573 13.0021L52.6307 10.9554L52.6307 10.9554L52.6318 10.9505C52.7091 10.6056 52.6729 10.2433 52.5851 9.93669C52.4975 9.63044 52.336 9.30183 52.0836 9.04944L51.6336 9.49941L52.0836 9.04943L50.4303 7.3961C50.0366 7.00244 50.0855 6.7933 50.0894 6.78124C50.093 6.7699 50.1733 6.5713 50.7229 6.47962C50.723 6.4796 50.7231 6.47958 50.7232 6.47956L52.8495 6.12629L52.8495 6.1263L52.8522 6.12585C53.1759 6.07087 53.4789 5.91452 53.7158 5.73889C53.9518 5.56393 54.1913 5.31854 54.3386 5.0195L55.5101 2.67658C55.5102 2.67638 55.5103 2.67619 55.5104 2.676C55.776 2.14774 55.996 2.13477 55.9991 2.13477C56.0008 2.13477 56.2193 2.14608 56.4818 2.67377ZM59.8443 13.8562C59.8442 13.8561 59.845 13.8552 59.8468 13.8537C59.8453 13.8555 59.8443 13.8563 59.8443 13.8562ZM59.8511 13.8505C59.853 13.8493 59.8541 13.8489 59.8541 13.849C59.8542 13.849 59.8533 13.8496 59.8511 13.8505ZM52.1493 13.8471C52.1494 13.847 52.1504 13.8475 52.1522 13.8487C52.1501 13.8478 52.1492 13.8472 52.1493 13.8471ZM52.1552 13.8509C52.1569 13.8523 52.1576 13.8531 52.1576 13.8532C52.1575 13.8532 52.1567 13.8526 52.1552 13.8509Z" fill="#FABF35" stroke="#FABF35" stroke-width="1.5" stroke-linecap="round" stroke-linejoin="round"/>
<path d="M72.4818 2.67377L72.4825 2.67518L73.6546 5.01946C73.802 5.31875 74.0419 5.56449 74.2796 5.73993C74.5187 5.91633 74.8236 6.07184 75.15 6.12623L75.1504 6.12629L77.2766 6.47956C77.2768 6.47958 77.2769 6.4796 77.277 6.47962C77.8273 6.57143 77.9096 6.77065 77.9134 6.78261C77.9167 6.79288 77.9676 7.00079 77.5714 7.39429L77.5696 7.3961L75.9163 9.04943C75.6639 9.30183 75.5024 9.63044 75.4147 9.93669C75.327 10.2433 75.2908 10.6056 75.3681 10.9505L75.3681 10.9505L75.3692 10.9554L75.8424 13.0015C75.8425 13.0017 75.8425 13.0018 75.8425 13.0019C75.8425 13.002 75.8425 13.002 75.8426 13.0021C75.921 13.3425 75.921 13.5765 75.8948 13.718C75.879 13.8036 75.8575 13.8398 75.8485 13.8516C75.8345 13.8567 75.7928 13.8664 75.7047 13.8553C75.5607 13.8371 75.3367 13.7657 75.0353 13.5877C75.0353 13.5877 75.0353 13.5877 75.0353 13.5877C75.0351 13.5876 75.0349 13.5875 75.0347 13.5873L73.0423 12.4079C73.0422 12.4078 73.0421 12.4078 73.042 12.4077C72.7181 12.2159 72.339 12.1431 72.0024 12.1431C71.6651 12.1431 71.2871 12.2162 70.9628 12.4048L70.9628 12.4048L70.9579 12.4077L68.9646 13.5877L68.9638 13.5881C68.6647 13.7656 68.4422 13.8363 68.2993 13.8542C68.2086 13.8655 68.1669 13.8545 68.1539 13.8494C68.1452 13.8387 68.1223 13.8026 68.1057 13.7137C68.0794 13.5729 68.0791 13.3402 68.1573 13.0022L68.1573 13.0021L68.6307 10.9554L68.6307 10.9554L68.6318 10.9505C68.7091 10.6056 68.6729 10.2433 68.5851 9.93669C68.4975 9.63044 68.336 9.30183 68.0836 9.04944L67.6336 9.49941L68.0836 9.04943L66.4303 7.3961C66.0366 7.00244 66.0855 6.7933 66.0894 6.78124C66.093 6.7699 66.1733 6.5713 66.7229 6.47962C66.723 6.4796 66.7231 6.47958 66.7232 6.47956L68.8495 6.12629L68.8495 6.1263L68.8522 6.12585C69.1759 6.07087 69.4789 5.91452 69.7158 5.73889C69.9518 5.56393 70.1913 5.31854 70.3386 5.0195L71.5101 2.67658C71.5102 2.67638 71.5103 2.67619 71.5104 2.676C71.776 2.14774 71.996 2.13477 71.9991 2.13477C72.0008 2.13477 72.2193 2.14608 72.4818 2.67377ZM75.8443 13.8562C75.8442 13.8561 75.845 13.8552 75.8468 13.8537C75.8453 13.8555 75.8443 13.8563 75.8443 13.8562ZM75.8511 13.8505C75.853 13.8493 75.8541 13.8489 75.8541 13.849C75.8542 13.849 75.8533 13.8496 75.8511 13.8505ZM68.1493 13.8471C68.1494 13.847 68.1504 13.8475 68.1522 13.8487C68.1501 13.8478 68.1492 13.8472 68.1493 13.8471ZM68.1552 13.8509C68.1569 13.8523 68.1576 13.8531 68.1576 13.8532C68.1575 13.8532 68.1567 13.8526 68.1552 13.8509Z" fill="#FABF35" stroke="#FABF35" stroke-width="1.5" stroke-linecap="round" stroke-linejoin="round"/>
</svg>
